<svg width="29" height="29" viewBox="0 0 29 29" fill="none" xmlns="http://www.w3.org/2000/svg">
<g clip-path="url(#clip0_2_71)">
<path d="M14.4652 17.0241C15.892 17.0241 17.0486 15.8675 17.0486 14.4408C17.0486 13.0141 15.892 11.8575 14.4652 11.8575C13.0385 11.8575 11.8819 13.0141 11.8819 14.4408C11.8819 15.8675 13.0385 17.0241 14.4652 17.0241Z" fill="#00ABCA"/>
<path fill-rule="evenodd" clip-rule="evenodd" d="M14.4657 9.18842C17.9342 9.18842 21.1563 9.68611 23.5858 10.5225C26.513 11.5302 28.3127 13.0577 28.3127 14.4409C28.3127 15.8822 26.4053 17.5049 23.262 18.5464C20.8855 19.3338 17.7582 19.7448 14.4657 19.7448C11.0901 19.7448 7.89349 19.359 5.49024 18.5378C2.44969 17.4985 0.61834 15.8547 0.61834 14.4409C0.61834 13.0689 2.33671 11.5533 5.22273 10.547C7.66125 9.69687 10.9629 9.18842 14.4653 9.18842H14.4657Z" stroke="#00ABCA" stroke-width="1.23587"/>
<path fill-rule="evenodd" clip-rule="evenodd" d="M9.89373 11.8297C11.6265 8.82514 13.6673 6.28255 15.6055 4.59579C17.9408 2.5635 20.1631 1.7676 21.3613 2.45851C22.6099 3.17856 23.0628 5.64159 22.3946 8.88483C21.89 11.3369 20.6832 14.2512 19.0384 17.1034C17.352 20.0276 15.4209 22.604 13.5091 24.2751C11.0898 26.3899 8.75097 27.1552 7.52617 26.4489C6.33767 25.764 5.88318 23.5178 6.45333 20.515C6.93506 17.9778 8.144 14.8637 9.89317 11.8297L9.89373 11.8297Z" stroke="#00ABCA" stroke-width="1.23587"/>
<path fill-rule="evenodd" clip-rule="evenodd" d="M9.89693 17.1109C8.15925 14.1097 6.97616 11.0713 6.48233 8.54972C5.88787 5.51154 6.30817 3.18862 7.50521 2.4957C8.75262 1.77354 11.1127 2.61126 13.5888 4.80987C15.4609 6.47212 17.3833 8.97254 19.0329 11.822C20.7242 14.7435 21.9918 17.7032 22.4849 20.1941C23.1089 23.3463 22.6039 25.7547 21.3802 26.4631C20.1929 27.1504 18.0202 26.4227 15.7035 24.4291C13.746 22.7447 11.6518 20.142 9.89693 17.1109V17.1109Z" stroke="#00ABCA" stroke-width="1.23587"/>
</g>
<defs>
<clipPath id="clip0_2_71">
<rect width="28.9295" height="28.9295" fill="white"/>
</clipPath>
</defs>
</svg>
